<?xml version="1.0" encoding="utf-8"?>
<!-- Generator: Adobe Illustrator 19.0.0, SVG Export Plug-In . SVG Version: 6.00 Build 0)  -->
<svg version="1.1" id="图层_1" xmlns="http://www.w3.org/2000/svg" xmlns:xlink="http://www.w3.org/1999/xlink" x="0px" y="0px"
	 viewBox="0 0 128 128" style="enable-background:new 0 0 128 128;" xml:space="preserve">
<style type="text/css">
	.st0{fill:#333333;}
</style>
<g id="XMLID_2_">
	<path id="XMLID_7_" class="st0" d="M63.958,59.137c7.703,0,13.975-5.967,13.975-13.309S71.661,32.52,63.958,32.52
		c-7.703,0-13.975,5.967-13.975,13.309C49.983,53.17,56.255,59.137,63.958,59.137z M63.958,37.842c4.635,0,8.385,3.576,8.385,7.986
		c0,4.405-3.75,7.987-8.385,7.987c-4.626,0-8.385-3.581-8.385-7.987C55.573,41.418,59.331,37.842,63.958,37.842z"/>
	<path id="XMLID_6_" class="st0" d="M103.008,42.127c-0.109,1.867-0.156,3.335-0.529,6.18l11.788-3.718v58.329l-33.54,9.329
		L41.655,101.4v-0.016l-0.027,0.011l-0.03-0.011v0.022l-27.95,8.974l0-58.099l11.57-2.8c-0.278-1.6-0.39-3.303-0.39-5.006v-0.213
		l-16.77,4.045v69.208l5.59-1.807l27.98-8.991l39.099,10.832l39.13-10.838V37.498L103.008,42.127z"/>
	<path id="XMLID_3_" class="st0" d="M49.273,83.621c0.218,0.311,0.434,0.562,0.609,0.743c5.12,6.179,10.279,10.29,10.503,10.465
		l3.595,2.85l3.578-2.871c0.224-0.175,5.366-4.334,10.476-10.492c0.175-0.185,0.399-0.442,0.614-0.759
		c7.307-9.487,16.39-23.233,18.443-35.134c0.396-2.713,0.407-4.356,0.407-4.536c0.068-8.893-3.488-17.25-10.012-23.506
		c-6.316-6.059-14.674-9.395-23.528-9.395c-8.819,0-17.154,3.335-23.471,9.395c-6.559,6.288-10.137,14.69-10.069,23.648
		c0,0.142,0.011,1.791,0.39,4.373C33.014,61.135,43.266,75.858,49.273,83.621z M63.958,16.306c15.43,0,28.062,12.299,27.95,27.579
		c0,0,0,1.381-0.336,3.674c-1.845,10.699-10.563,23.954-17.55,33.005c-0.057,0.109-0.169,0.213-0.224,0.267
		c-4.864,5.907-9.84,9.902-9.84,9.902s-4.976-3.941-9.839-9.848c-0.055-0.055-0.167-0.164-0.224-0.267
		c-6.988-8.996-15.706-22.305-17.551-32.956c-0.336-2.287-0.336-3.674-0.336-3.674C35.896,28.709,48.528,16.306,63.958,16.306z"/>
</g>
</svg>
